<?xml version="1.0" standalone="no"?>
<!DOCTYPE svg PUBLIC "-//W3C//DTD SVG 1.1//EN" "http://www.w3.org/Graphics/SVG/1.1/DTD/svg11.dtd">
<svg t="1599032900950" class="icon" viewBox="0 0 1024 1024" version="1.1" xmlns="http://www.w3.org/2000/svg" p-id="19815" xmlns:xlink="http://www.w3.org/1999/xlink" width="64" height="64">
    <defs>
        <style type="text/css"></style>
    </defs>
    <path d="M835.2 128H188.8C156.8 128 128 156.8 128 188.8V832c0 35.2 28.8 64 60.8 64H832c35.2 0 60.8-28.8 60.8-60.8V188.8c3.2-32-25.6-60.8-57.6-60.8zM268.8 544c-6.4 0-16-3.2-22.4-9.6-12.8-12.8-12.8-32 0-44.8l99.2-99.2-99.2-99.2c-12.8-12.8-12.8-32 0-44.8s32-12.8 44.8 0l121.6 121.6c12.8 12.8 12.8 32 0 44.8l-121.6 121.6c-6.4 6.4-12.8 9.6-22.4 9.6z m332.8 0h-169.6c-16 0-32-12.8-32-32 0-16 12.8-32 32-32h169.6c16 0 32 12.8 32 32 0 16-12.8 32-32 32z" p-id="19816" fill="#2f86fc"></path>
</svg>